<mxfile host="app.diagrams.net" modified="2023-10-26T09:14:35.149Z" agent="Mozilla/5.0 (Windows NT 10.0; Win64; x64) AppleWebKit/537.36 (KHTML, like Gecko) Chrome/118.0.0.0 Safari/537.36" version="22.0.8" etag="8ZfCo7KHfNlM39R3fDst" type="github">
  <diagram name="Page-1" id="stPYWZMyBSoXRsbB3Rbq">
    <mxGraphModel>
      <root>
        <mxCell id="0" />
        <mxCell id="1" parent="0" />
      </root>
    </mxGraphModel>
  </diagram>
</mxfile>
